<?xml version="1.0" encoding="utf-8"?>
<!-- Generator: Adobe Illustrator 16.0.4, SVG Export Plug-In . SVG Version: 6.00 Build 0)  -->
<!DOCTYPE svg PUBLIC "-//W3C//DTD SVG 1.1//EN" "http://www.w3.org/Graphics/SVG/1.1/DTD/svg11.dtd">
<svg version="1.1" id="Layer_1" xmlns="http://www.w3.org/2000/svg" xmlns:xlink="http://www.w3.org/1999/xlink" x="0px" y="0px"
	 width="773.5px" height="31.905px" viewBox="0 0 773.5 31.905" enable-background="new 0 0 773.5 31.905" xml:space="preserve">
<g>
	<rect x="2" y="3.429" fill="#2BBECF" width="378" height="14.667"/>
	<g>
		<g>
			<path d="M28.572,9.19c0,0.356-0.108,0.66-0.324,0.91s-0.52,0.422-0.91,0.516v0.023c0.461,0.058,0.81,0.197,1.047,0.42
				s0.355,0.522,0.355,0.9c0,0.55-0.199,0.978-0.598,1.283s-0.967,0.459-1.707,0.459c-0.62,0-1.169-0.103-1.648-0.309v-1.027
				c0.221,0.112,0.465,0.203,0.73,0.273s0.529,0.105,0.789,0.105c0.398,0,0.693-0.067,0.883-0.203s0.285-0.353,0.285-0.652
				c0-0.269-0.109-0.458-0.328-0.57s-0.568-0.168-1.047-0.168h-0.434v-0.926h0.441c0.443,0,0.766-0.058,0.971-0.174
				s0.307-0.314,0.307-0.596c0-0.433-0.271-0.648-0.812-0.648c-0.188,0-0.378,0.031-0.572,0.094s-0.41,0.171-0.646,0.324
				l-0.559-0.832c0.521-0.375,1.142-0.562,1.863-0.562c0.591,0,1.058,0.12,1.4,0.359S28.572,8.764,28.572,9.19z"/>
			<path d="M33.361,13.624h-3.992v-0.84l1.434-1.449c0.424-0.435,0.702-0.736,0.832-0.904s0.224-0.323,0.281-0.467
				s0.086-0.292,0.086-0.445c0-0.229-0.063-0.399-0.189-0.512s-0.295-0.168-0.506-0.168c-0.221,0-0.436,0.051-0.645,0.152
				s-0.426,0.246-0.652,0.434l-0.656-0.777c0.281-0.239,0.514-0.409,0.699-0.508s0.387-0.175,0.605-0.229s0.463-0.08,0.734-0.08
				c0.357,0,0.672,0.065,0.945,0.195s0.486,0.312,0.637,0.547s0.227,0.503,0.227,0.805c0,0.263-0.046,0.51-0.139,0.74
				s-0.236,0.467-0.43,0.709s-0.536,0.587-1.025,1.035l-0.734,0.691v0.055h2.488V13.624z"/>
		</g>
		<g>
			<path d="M85.368,9.19c0,0.356-0.108,0.66-0.324,0.91s-0.52,0.422-0.91,0.516v0.023c0.461,0.058,0.81,0.197,1.047,0.42
				s0.355,0.522,0.355,0.9c0,0.55-0.199,0.978-0.598,1.283s-0.967,0.459-1.707,0.459c-0.62,0-1.169-0.103-1.648-0.309v-1.027
				c0.221,0.112,0.465,0.203,0.73,0.273s0.529,0.105,0.789,0.105c0.398,0,0.693-0.067,0.883-0.203s0.285-0.353,0.285-0.652
				c0-0.269-0.109-0.458-0.328-0.57s-0.568-0.168-1.047-0.168h-0.434v-0.926h0.441c0.443,0,0.766-0.058,0.971-0.174
				s0.307-0.314,0.307-0.596c0-0.433-0.271-0.648-0.812-0.648c-0.188,0-0.378,0.031-0.572,0.094s-0.41,0.171-0.646,0.324
				L81.59,8.394c0.521-0.375,1.142-0.562,1.863-0.562c0.591,0,1.058,0.12,1.4,0.359S85.368,8.764,85.368,9.19z"/>
			<path d="M89.149,13.624h-1.207v-3.305l0.012-0.543l0.02-0.594c-0.201,0.2-0.34,0.332-0.418,0.395l-0.656,0.527l-0.582-0.727
				l1.84-1.465h0.992V13.624z"/>
		</g>
		<g>
			<path d="M140.443,9.19c0,0.356-0.108,0.66-0.324,0.91s-0.52,0.422-0.91,0.516v0.023c0.461,0.058,0.81,0.197,1.047,0.42
				s0.355,0.522,0.355,0.9c0,0.55-0.199,0.978-0.598,1.283s-0.967,0.459-1.707,0.459c-0.62,0-1.169-0.103-1.648-0.309v-1.027
				c0.221,0.112,0.465,0.203,0.73,0.273s0.529,0.105,0.789,0.105c0.398,0,0.693-0.067,0.883-0.203s0.285-0.353,0.285-0.652
				c0-0.269-0.109-0.458-0.328-0.57s-0.568-0.168-1.047-0.168h-0.434v-0.926h0.441c0.443,0,0.766-0.058,0.971-0.174
				s0.307-0.314,0.307-0.596c0-0.433-0.271-0.648-0.812-0.648c-0.188,0-0.378,0.031-0.572,0.094s-0.41,0.171-0.646,0.324
				l-0.559-0.832c0.521-0.375,1.142-0.562,1.863-0.562c0.591,0,1.058,0.12,1.4,0.359S140.443,8.764,140.443,9.19z"/>
			<path d="M145.201,10.769c0,0.997-0.164,1.735-0.49,2.215s-0.83,0.719-1.51,0.719c-0.659,0-1.156-0.247-1.49-0.742
				s-0.502-1.226-0.502-2.191c0-1.008,0.163-1.751,0.488-2.229s0.827-0.717,1.504-0.717c0.659,0,1.157,0.25,1.494,0.75
				S145.201,9.805,145.201,10.769z M142.408,10.769c0,0.7,0.061,1.202,0.182,1.506s0.325,0.455,0.611,0.455
				c0.281,0,0.484-0.153,0.609-0.461s0.188-0.808,0.188-1.5c0-0.7-0.063-1.204-0.189-1.51S143.479,8.8,143.201,8.8
				c-0.284,0-0.487,0.153-0.609,0.459S142.408,10.068,142.408,10.769z"/>
		</g>
		<g>
			<path d="M189.668,13.624h-3.992v-0.84l1.434-1.449c0.424-0.435,0.702-0.736,0.832-0.904s0.224-0.323,0.281-0.467
				s0.086-0.292,0.086-0.445c0-0.229-0.063-0.399-0.189-0.512s-0.295-0.168-0.506-0.168c-0.221,0-0.436,0.051-0.645,0.152
				s-0.426,0.246-0.652,0.434l-0.656-0.777c0.281-0.239,0.514-0.409,0.699-0.508s0.387-0.175,0.605-0.229s0.463-0.08,0.734-0.08
				c0.357,0,0.672,0.065,0.945,0.195s0.486,0.312,0.637,0.547s0.227,0.503,0.227,0.805c0,0.263-0.046,0.51-0.139,0.74
				s-0.236,0.467-0.43,0.709s-0.536,0.587-1.025,1.035l-0.734,0.691v0.055h2.488V13.624z"/>
			<path d="M194.211,10.351c0,1.125-0.237,1.965-0.711,2.52s-1.191,0.832-2.152,0.832c-0.338,0-0.595-0.019-0.77-0.055v-0.969
				c0.219,0.055,0.448,0.082,0.688,0.082c0.404,0,0.736-0.06,0.996-0.178s0.459-0.305,0.598-0.559s0.217-0.604,0.238-1.049h-0.047
				c-0.151,0.245-0.326,0.417-0.523,0.516s-0.445,0.148-0.742,0.148c-0.498,0-0.889-0.159-1.176-0.479s-0.43-0.763-0.43-1.33
				c0-0.612,0.174-1.096,0.521-1.451s0.821-0.533,1.42-0.533c0.422,0,0.791,0.099,1.107,0.297s0.559,0.485,0.729,0.861
				S194.211,9.83,194.211,10.351z M192.145,8.815c-0.25,0-0.445,0.086-0.586,0.258s-0.211,0.419-0.211,0.742
				c0,0.276,0.064,0.495,0.191,0.656s0.322,0.242,0.582,0.242c0.245,0,0.455-0.08,0.629-0.24s0.262-0.345,0.262-0.553
				c0-0.31-0.082-0.571-0.244-0.785S192.397,8.815,192.145,8.815z"/>
		</g>
		<g>
			<path d="M231.339,13.624h-3.992v-0.84l1.434-1.449c0.424-0.435,0.702-0.736,0.832-0.904s0.224-0.323,0.281-0.467
				s0.086-0.292,0.086-0.445c0-0.229-0.063-0.399-0.189-0.512s-0.295-0.168-0.506-0.168c-0.221,0-0.436,0.051-0.645,0.152
				s-0.426,0.246-0.652,0.434l-0.656-0.777c0.281-0.239,0.514-0.409,0.699-0.508s0.387-0.175,0.605-0.229s0.463-0.08,0.734-0.08
				c0.357,0,0.672,0.065,0.945,0.195s0.486,0.312,0.637,0.547s0.227,0.503,0.227,0.805c0,0.263-0.046,0.51-0.139,0.74
				s-0.236,0.467-0.43,0.709s-0.536,0.587-1.025,1.035l-0.734,0.691v0.055h2.488V13.624z"/>
			<path d="M233.882,7.839c0.547,0,0.988,0.124,1.322,0.373s0.502,0.584,0.502,1.006c0,0.292-0.081,0.552-0.242,0.779
				s-0.422,0.432-0.781,0.611c0.427,0.229,0.734,0.468,0.92,0.717s0.279,0.521,0.279,0.818c0,0.469-0.184,0.846-0.551,1.131
				s-0.85,0.428-1.449,0.428c-0.625,0-1.116-0.133-1.473-0.398s-0.535-0.642-0.535-1.129c0-0.325,0.086-0.614,0.26-0.867
				s0.451-0.476,0.834-0.668c-0.326-0.206-0.56-0.426-0.703-0.66s-0.215-0.491-0.215-0.77c0-0.409,0.169-0.739,0.508-0.992
				S233.338,7.839,233.882,7.839z M232.992,12.104c0,0.224,0.078,0.398,0.234,0.523s0.37,0.188,0.641,0.188
				c0.299,0,0.523-0.064,0.672-0.193s0.223-0.299,0.223-0.51c0-0.175-0.074-0.338-0.221-0.49s-0.386-0.314-0.717-0.486
				C233.269,11.391,232.992,11.714,232.992,12.104z M233.875,8.722c-0.206,0-0.372,0.053-0.498,0.158s-0.189,0.247-0.189,0.424
				c0,0.156,0.05,0.296,0.15,0.42s0.282,0.251,0.545,0.381c0.255-0.12,0.434-0.242,0.535-0.367s0.152-0.27,0.152-0.434
				c0-0.18-0.065-0.321-0.195-0.426S234.078,8.722,233.875,8.722z"/>
		</g>
		<g>
			<path d="M274.999,13.702h-3.992v-0.84l1.434-1.449c0.424-0.435,0.702-0.736,0.832-0.904s0.224-0.323,0.281-0.467
				s0.086-0.292,0.086-0.445c0-0.229-0.063-0.399-0.189-0.512s-0.295-0.168-0.506-0.168c-0.221,0-0.436,0.051-0.645,0.152
				s-0.426,0.246-0.652,0.434l-0.656-0.777c0.281-0.239,0.514-0.409,0.699-0.508s0.387-0.175,0.605-0.229s0.463-0.08,0.734-0.08
				c0.357,0,0.672,0.065,0.945,0.195s0.486,0.312,0.637,0.547s0.227,0.503,0.227,0.805c0,0.263-0.046,0.51-0.139,0.74
				s-0.236,0.467-0.43,0.709s-0.536,0.587-1.025,1.035l-0.734,0.691v0.055h2.488V13.702z"/>
			<path d="M276.14,13.702l2.145-4.688h-2.816V7.999h4.098v0.758l-2.16,4.945H276.14z"/>
		</g>
		<g>
			<path d="M317.649,13.624h-3.992v-0.84l1.434-1.449c0.424-0.435,0.702-0.736,0.832-0.904s0.224-0.323,0.281-0.467
				s0.086-0.292,0.086-0.445c0-0.229-0.063-0.399-0.189-0.512s-0.295-0.168-0.506-0.168c-0.221,0-0.436,0.051-0.645,0.152
				s-0.426,0.246-0.652,0.434l-0.656-0.777c0.281-0.239,0.514-0.409,0.699-0.508s0.387-0.175,0.605-0.229s0.463-0.08,0.734-0.08
				c0.357,0,0.672,0.065,0.945,0.195s0.486,0.312,0.637,0.547s0.227,0.503,0.227,0.805c0,0.263-0.046,0.51-0.139,0.74
				s-0.236,0.467-0.43,0.709s-0.536,0.587-1.025,1.035l-0.734,0.691v0.055h2.488V13.624z"/>
			<path d="M318.185,11.198c0-1.13,0.239-1.972,0.717-2.523s1.193-0.828,2.146-0.828c0.326,0,0.581,0.02,0.766,0.059V8.87
				c-0.232-0.052-0.461-0.078-0.688-0.078c-0.414,0-0.752,0.062-1.014,0.188s-0.458,0.31-0.588,0.555s-0.207,0.593-0.23,1.043h0.051
				c0.258-0.442,0.67-0.664,1.238-0.664c0.51,0,0.91,0.16,1.199,0.48s0.434,0.763,0.434,1.328c0,0.609-0.172,1.092-0.516,1.447
				s-0.82,0.533-1.43,0.533c-0.422,0-0.79-0.098-1.104-0.293s-0.556-0.48-0.727-0.855S318.185,11.727,318.185,11.198z
				 M320.247,12.737c0.258,0,0.456-0.087,0.594-0.26s0.207-0.42,0.207-0.74c0-0.278-0.064-0.498-0.193-0.658s-0.324-0.24-0.584-0.24
				c-0.245,0-0.454,0.079-0.627,0.238s-0.26,0.344-0.26,0.555c0,0.31,0.082,0.571,0.244,0.785S319.997,12.737,320.247,12.737z"/>
		</g>
		<g>
			<path d="M360.353,13.624h-3.992v-0.84l1.434-1.449c0.424-0.435,0.702-0.736,0.832-0.904s0.224-0.323,0.281-0.467
				s0.086-0.292,0.086-0.445c0-0.229-0.063-0.399-0.189-0.512s-0.295-0.168-0.506-0.168c-0.221,0-0.436,0.051-0.645,0.152
				s-0.426,0.246-0.652,0.434l-0.656-0.777c0.281-0.239,0.514-0.409,0.699-0.508s0.387-0.175,0.605-0.229s0.463-0.08,0.734-0.08
				c0.357,0,0.672,0.065,0.945,0.195s0.486,0.312,0.637,0.547s0.227,0.503,0.227,0.805c0,0.263-0.046,0.51-0.139,0.74
				s-0.236,0.467-0.43,0.709s-0.536,0.587-1.025,1.035l-0.734,0.691v0.055h2.488V13.624z"/>
			<path d="M363.005,9.976c0.552,0,0.992,0.155,1.318,0.465s0.49,0.734,0.49,1.273c0,0.638-0.197,1.129-0.59,1.473
				s-0.956,0.516-1.688,0.516c-0.635,0-1.148-0.103-1.539-0.309v-1.043c0.206,0.109,0.445,0.198,0.719,0.268
				s0.533,0.104,0.777,0.104c0.737,0,1.105-0.302,1.105-0.906c0-0.575-0.381-0.863-1.145-0.863c-0.138,0-0.291,0.014-0.457,0.041
				s-0.302,0.057-0.406,0.088l-0.48-0.258l0.215-2.91h3.098v1.023h-2.039l-0.105,1.121l0.137-0.027
				C362.574,9.994,362.771,9.976,363.005,9.976z"/>
		</g>
	</g>
</g>
<g>
	<path d="M724.016,28.405v-5.711h1.211v4.711h2.316v1H724.016z"/>
	<path d="M733.719,25.542c0,0.945-0.234,1.672-0.703,2.18s-1.141,0.762-2.016,0.762s-1.547-0.254-2.016-0.762
		s-0.703-1.236-0.703-2.188s0.235-1.676,0.705-2.178c0.471-0.502,1.145-0.752,2.021-0.752c0.878,0,1.549,0.252,2.014,0.758
		S733.719,24.595,733.719,25.542z M729.551,25.542c0,0.639,0.121,1.119,0.363,1.441s0.604,0.484,1.086,0.484
		c0.967,0,1.449-0.643,1.449-1.926c0-1.287-0.48-1.93-1.441-1.93c-0.481,0-0.845,0.162-1.09,0.486
		C729.674,24.423,729.551,24.903,729.551,25.542z"/>
	<path d="M740.465,28.405h-1.379l-0.773-3c-0.028-0.107-0.077-0.328-0.146-0.662c-0.068-0.334-0.108-0.559-0.119-0.674
		c-0.016,0.141-0.055,0.367-0.117,0.678s-0.11,0.533-0.145,0.666l-0.77,2.992h-1.375l-1.457-5.711h1.191l0.73,3.117
		c0.128,0.576,0.221,1.074,0.277,1.496c0.016-0.148,0.052-0.379,0.107-0.689c0.057-0.311,0.109-0.553,0.158-0.725l0.832-3.199h1.145
		l0.832,3.199c0.037,0.143,0.082,0.361,0.137,0.656s0.097,0.547,0.125,0.758c0.026-0.203,0.068-0.457,0.125-0.76
		c0.058-0.303,0.109-0.549,0.156-0.736l0.727-3.117h1.191L740.465,28.405z"/>
	<path d="M745.926,28.405h-3.289v-5.711h3.289v0.992h-2.078v1.254h1.934v0.992h-1.934v1.473h2.078V28.405z"/>
	<path d="M748.328,26.214v2.191h-1.211v-5.711h1.664c0.776,0,1.351,0.141,1.723,0.424c0.373,0.283,0.559,0.711,0.559,1.287
		c0,0.336-0.092,0.635-0.277,0.896c-0.185,0.262-0.446,0.467-0.785,0.615c0.859,1.283,1.42,2.113,1.68,2.488h-1.344l-1.363-2.191
		H748.328z M748.328,25.229h0.391c0.383,0,0.666-0.064,0.848-0.191c0.183-0.127,0.273-0.328,0.273-0.602
		c0-0.271-0.093-0.463-0.279-0.578c-0.186-0.115-0.475-0.172-0.865-0.172h-0.367V25.229z"/>
	<path d="M754.477,28.405v-5.711h1.211v4.711h2.316v1H754.477z"/>
	<path d="M762.285,28.405h-3.289v-5.711h3.289v0.992h-2.078v1.254h1.934v0.992h-1.934v1.473h2.078V28.405z"/>
	<path d="M764.668,28.405h-1.191v-5.711h3.273v0.992h-2.082v1.473h1.938v0.988h-1.938V28.405z"/>
	<path d="M770.07,28.405h-1.211v-4.703h-1.551v-1.008h4.312v1.008h-1.551V28.405z"/>
</g>
<g>
	<rect x="393.666" y="3.429" fill="#2BBECF" width="377.667" height="14.667"/>
	<g>
		<g>
			<path d="M415.122,13.701h-3.992v-0.84l1.434-1.449c0.424-0.435,0.701-0.736,0.832-0.904c0.129-0.168,0.223-0.323,0.281-0.467
				c0.057-0.144,0.086-0.292,0.086-0.445c0-0.229-0.064-0.399-0.189-0.512c-0.127-0.112-0.295-0.168-0.506-0.168
				c-0.223,0-0.438,0.051-0.645,0.152c-0.209,0.102-0.426,0.246-0.652,0.434l-0.656-0.777c0.281-0.239,0.514-0.409,0.699-0.508
				c0.184-0.099,0.387-0.175,0.605-0.229s0.463-0.08,0.734-0.08c0.355,0,0.672,0.065,0.945,0.195s0.484,0.312,0.637,0.547
				c0.15,0.234,0.227,0.503,0.227,0.805c0,0.263-0.047,0.51-0.139,0.74c-0.094,0.23-0.236,0.467-0.43,0.709
				c-0.195,0.242-0.537,0.587-1.025,1.035l-0.734,0.691v0.055h2.488V13.701z"/>
			<path d="M419.817,12.518h-0.688v1.184h-1.18v-1.184h-2.438v-0.84l2.504-3.688h1.113v3.59h0.688V12.518z M417.95,11.58v-0.969
				c0-0.161,0.006-0.396,0.02-0.703c0.012-0.308,0.023-0.485,0.031-0.535h-0.031c-0.098,0.214-0.213,0.422-0.348,0.625l-1.047,1.582
				H417.95z"/>
		</g>
		<g>
			<path d="M456.194,13.623h-3.992v-0.84l1.434-1.449c0.424-0.436,0.701-0.736,0.832-0.904c0.13-0.168,0.224-0.324,0.281-0.467
				c0.057-0.143,0.086-0.291,0.086-0.445c0-0.229-0.063-0.4-0.189-0.512c-0.127-0.111-0.295-0.168-0.506-0.168
				c-0.222,0-0.437,0.051-0.645,0.152c-0.209,0.102-0.426,0.246-0.652,0.434l-0.656-0.777c0.281-0.24,0.514-0.408,0.699-0.508
				c0.185-0.1,0.387-0.176,0.605-0.229s0.463-0.08,0.734-0.08c0.356,0,0.672,0.064,0.945,0.195s0.485,0.312,0.637,0.547
				c0.15,0.234,0.227,0.502,0.227,0.805c0,0.264-0.047,0.51-0.139,0.74c-0.093,0.23-0.236,0.467-0.43,0.709
				c-0.194,0.242-0.536,0.588-1.025,1.035l-0.734,0.691v0.055h2.488V13.623z"/>
			<path d="M460.538,9.189c0,0.357-0.108,0.66-0.324,0.91c-0.217,0.25-0.52,0.422-0.91,0.516v0.023
				c0.461,0.057,0.81,0.197,1.047,0.42c0.236,0.223,0.355,0.523,0.355,0.9c0,0.549-0.199,0.977-0.598,1.283
				s-0.968,0.459-1.707,0.459c-0.62,0-1.17-0.104-1.648-0.309v-1.027c0.221,0.111,0.465,0.203,0.73,0.273s0.528,0.105,0.789,0.105
				c0.398,0,0.692-0.068,0.883-0.203c0.189-0.135,0.285-0.354,0.285-0.652c0-0.268-0.109-0.459-0.328-0.57s-0.568-0.168-1.047-0.168
				h-0.434v-0.926h0.441c0.442,0,0.766-0.059,0.971-0.174c0.204-0.115,0.307-0.314,0.307-0.596c0-0.432-0.271-0.648-0.812-0.648
				c-0.188,0-0.379,0.031-0.572,0.094c-0.194,0.062-0.41,0.17-0.646,0.324l-0.559-0.832c0.521-0.375,1.142-0.562,1.863-0.562
				c0.591,0,1.058,0.119,1.4,0.359C460.366,8.43,460.538,8.762,460.538,9.189z"/>
		</g>
		<g>
			<path d="M497.77,13.701h-3.992v-0.84l1.434-1.449c0.424-0.435,0.701-0.736,0.832-0.904c0.13-0.168,0.224-0.323,0.281-0.467
				c0.057-0.144,0.086-0.292,0.086-0.445c0-0.229-0.063-0.399-0.189-0.512c-0.127-0.112-0.295-0.168-0.506-0.168
				c-0.222,0-0.437,0.051-0.645,0.152c-0.209,0.102-0.426,0.246-0.652,0.434l-0.656-0.777c0.281-0.239,0.514-0.409,0.699-0.508
				c0.185-0.099,0.387-0.175,0.605-0.229s0.463-0.08,0.734-0.08c0.356,0,0.672,0.065,0.945,0.195s0.485,0.312,0.637,0.547
				c0.15,0.234,0.227,0.503,0.227,0.805c0,0.263-0.047,0.51-0.139,0.74c-0.093,0.23-0.236,0.467-0.43,0.709
				c-0.194,0.242-0.536,0.587-1.025,1.035l-0.734,0.691v0.055h2.488V13.701z"/>
			<path d="M502.336,13.701h-3.992v-0.84l1.434-1.449c0.424-0.435,0.701-0.736,0.832-0.904c0.13-0.168,0.224-0.323,0.281-0.467
				c0.057-0.144,0.086-0.292,0.086-0.445c0-0.229-0.063-0.399-0.189-0.512c-0.127-0.112-0.295-0.168-0.506-0.168
				c-0.222,0-0.437,0.051-0.645,0.152c-0.209,0.102-0.426,0.246-0.652,0.434l-0.656-0.777c0.281-0.239,0.514-0.409,0.699-0.508
				c0.185-0.099,0.387-0.175,0.605-0.229s0.463-0.08,0.734-0.08c0.356,0,0.672,0.065,0.945,0.195s0.485,0.312,0.637,0.547
				c0.15,0.234,0.227,0.503,0.227,0.805c0,0.263-0.047,0.51-0.139,0.74c-0.093,0.23-0.236,0.467-0.43,0.709
				c-0.194,0.242-0.536,0.587-1.025,1.035l-0.734,0.691v0.055h2.488V13.701z"/>
		</g>
		<g>
			<path d="M541.94,13.701h-3.992v-0.84l1.434-1.449c0.426-0.435,0.703-0.736,0.832-0.904c0.131-0.168,0.225-0.323,0.281-0.467
				c0.059-0.144,0.086-0.292,0.086-0.445c0-0.229-0.062-0.399-0.189-0.512c-0.125-0.112-0.295-0.168-0.506-0.168
				c-0.221,0-0.436,0.051-0.645,0.152c-0.207,0.102-0.426,0.246-0.652,0.434l-0.656-0.777c0.281-0.239,0.516-0.409,0.699-0.508
				c0.186-0.099,0.387-0.175,0.605-0.229s0.465-0.08,0.734-0.08c0.357,0,0.672,0.065,0.945,0.195s0.486,0.312,0.637,0.547
				c0.152,0.234,0.227,0.503,0.227,0.805c0,0.263-0.045,0.51-0.139,0.74c-0.092,0.23-0.234,0.467-0.43,0.709
				c-0.193,0.242-0.535,0.587-1.025,1.035l-0.734,0.691v0.055h2.488V13.701z"/>
			<path d="M545.499,13.701h-1.207v-3.305l0.012-0.543l0.02-0.594c-0.199,0.2-0.34,0.332-0.418,0.395l-0.656,0.527l-0.582-0.727
				l1.84-1.465h0.992V13.701z"/>
		</g>
		<g>
			<path d="M581.517,13.623h-3.992v-0.84l1.434-1.449c0.424-0.435,0.701-0.736,0.832-0.904c0.13-0.168,0.224-0.323,0.281-0.467
				c0.057-0.144,0.086-0.292,0.086-0.445c0-0.229-0.063-0.399-0.189-0.512c-0.127-0.112-0.295-0.168-0.506-0.168
				c-0.222,0-0.437,0.051-0.645,0.152c-0.209,0.102-0.426,0.246-0.652,0.434l-0.656-0.777c0.281-0.239,0.514-0.409,0.699-0.508
				c0.185-0.099,0.387-0.175,0.605-0.229s0.463-0.08,0.734-0.08c0.356,0,0.672,0.065,0.945,0.195s0.485,0.312,0.637,0.547
				c0.15,0.234,0.227,0.503,0.227,0.805c0,0.263-0.047,0.51-0.139,0.74c-0.093,0.23-0.236,0.467-0.43,0.709
				c-0.194,0.242-0.536,0.587-1.025,1.035l-0.734,0.691v0.055h2.488V13.623z"/>
			<path d="M586.052,10.768c0,0.997-0.164,1.735-0.49,2.215c-0.327,0.479-0.83,0.719-1.51,0.719c-0.659,0-1.156-0.247-1.49-0.742
				c-0.335-0.495-0.502-1.226-0.502-2.191c0-1.008,0.162-1.751,0.488-2.229c0.325-0.478,0.826-0.717,1.504-0.717
				c0.658,0,1.156,0.25,1.494,0.75C585.883,9.072,586.052,9.804,586.052,10.768z M583.259,10.768c0,0.7,0.061,1.202,0.182,1.506
				s0.324,0.455,0.611,0.455c0.281,0,0.484-0.153,0.609-0.461s0.188-0.808,0.188-1.5c0-0.7-0.063-1.204-0.189-1.51
				c-0.127-0.306-0.329-0.459-0.607-0.459c-0.284,0-0.487,0.153-0.609,0.459C583.319,9.563,583.259,10.067,583.259,10.768z"/>
		</g>
		<g>
			<path d="M630.343,13.623h-1.207v-3.305l0.012-0.543l0.02-0.594c-0.201,0.2-0.34,0.332-0.418,0.395l-0.656,0.527l-0.582-0.727
				l1.84-1.465h0.992V13.623z"/>
			<path d="M635.894,10.35c0,1.125-0.236,1.965-0.711,2.52s-1.191,0.832-2.152,0.832c-0.338,0-0.596-0.019-0.77-0.055v-0.969
				c0.219,0.055,0.447,0.082,0.688,0.082c0.404,0,0.736-0.06,0.996-0.178s0.459-0.305,0.598-0.559s0.217-0.604,0.238-1.049h-0.047
				c-0.15,0.245-0.326,0.417-0.523,0.516s-0.445,0.148-0.742,0.148c-0.498,0-0.889-0.159-1.176-0.479s-0.43-0.763-0.43-1.33
				c0-0.612,0.174-1.096,0.521-1.451s0.82-0.533,1.42-0.533c0.422,0,0.791,0.099,1.107,0.297s0.559,0.485,0.729,0.861
				S635.894,9.829,635.894,10.35z M633.827,8.814c-0.25,0-0.445,0.086-0.586,0.258s-0.211,0.419-0.211,0.742
				c0,0.276,0.064,0.495,0.191,0.656s0.322,0.242,0.582,0.242c0.244,0,0.455-0.08,0.629-0.24s0.262-0.345,0.262-0.553
				c0-0.31-0.082-0.571-0.244-0.785S634.079,8.814,633.827,8.814z"/>
		</g>
		<g>
			<path d="M686.785,13.623h-1.207v-3.305l0.012-0.543l0.02-0.594c-0.201,0.201-0.34,0.332-0.418,0.395l-0.656,0.527l-0.582-0.727
				l1.84-1.465h0.992V13.623z"/>
			<path d="M690.336,7.838c0.547,0,0.988,0.125,1.322,0.373s0.502,0.584,0.502,1.006c0,0.291-0.08,0.551-0.242,0.779
				s-0.422,0.432-0.781,0.611c0.428,0.229,0.734,0.469,0.92,0.717s0.279,0.521,0.279,0.818c0,0.469-0.184,0.846-0.551,1.131
				s-0.85,0.428-1.449,0.428c-0.625,0-1.115-0.133-1.473-0.398s-0.535-0.643-0.535-1.129c0-0.326,0.086-0.615,0.26-0.867
				s0.451-0.475,0.834-0.668c-0.326-0.205-0.561-0.426-0.703-0.66s-0.215-0.49-0.215-0.77c0-0.408,0.17-0.74,0.508-0.992
				S689.791,7.838,690.336,7.838z M689.445,12.104c0,0.225,0.078,0.398,0.234,0.523s0.369,0.188,0.641,0.188
				c0.299,0,0.523-0.064,0.672-0.193s0.223-0.299,0.223-0.51c0-0.174-0.074-0.338-0.221-0.49s-0.387-0.314-0.717-0.486
				C689.723,11.391,689.445,11.713,689.445,12.104z M690.328,8.721c-0.205,0-0.371,0.053-0.498,0.158s-0.189,0.246-0.189,0.424
				c0,0.156,0.051,0.297,0.15,0.42s0.281,0.25,0.545,0.381c0.256-0.119,0.434-0.242,0.535-0.367s0.152-0.27,0.152-0.434
				c0-0.18-0.064-0.322-0.195-0.426S690.531,8.721,690.328,8.721z"/>
		</g>
		<g>
			<path d="M743.639,13.701h-1.207v-3.305l0.012-0.543l0.02-0.594c-0.201,0.201-0.34,0.332-0.418,0.395l-0.656,0.527l-0.582-0.727
				l1.84-1.465h0.992V13.701z"/>
			<path d="M745.787,13.701l2.145-4.688h-2.816V7.998h4.098v0.758l-2.16,4.945H745.787z"/>
		</g>
	</g>
</g>
<g>
	<path d="M2.386,28.405v-5.711h1.211v4.711h2.316v1H2.386z"/>
	<path d="M12.089,25.542c0,0.945-0.234,1.672-0.703,2.18s-1.141,0.762-2.016,0.762s-1.547-0.254-2.016-0.762
		s-0.703-1.236-0.703-2.188s0.235-1.676,0.705-2.178s1.144-0.752,2.021-0.752s1.549,0.252,2.014,0.758S12.089,24.595,12.089,25.542z
		 M7.921,25.542c0,0.639,0.121,1.119,0.363,1.441s0.604,0.484,1.086,0.484c0.966,0,1.449-0.643,1.449-1.926
		c0-1.287-0.48-1.93-1.441-1.93c-0.482,0-0.845,0.162-1.09,0.486S7.921,24.903,7.921,25.542z"/>
	<path d="M18.835,28.405h-1.379l-0.773-3c-0.029-0.107-0.078-0.328-0.146-0.662s-0.109-0.559-0.119-0.674
		c-0.016,0.141-0.055,0.367-0.117,0.678s-0.111,0.533-0.145,0.666l-0.77,2.992h-1.375l-1.457-5.711h1.191l0.73,3.117
		c0.127,0.576,0.22,1.074,0.277,1.496c0.016-0.148,0.051-0.379,0.107-0.689s0.109-0.553,0.158-0.725l0.832-3.199h1.145l0.832,3.199
		c0.037,0.143,0.082,0.361,0.137,0.656s0.096,0.547,0.125,0.758c0.026-0.203,0.068-0.457,0.125-0.76s0.109-0.549,0.156-0.736
		l0.727-3.117h1.191L18.835,28.405z"/>
	<path d="M24.296,28.405h-3.289v-5.711h3.289v0.992h-2.078v1.254h1.934v0.992h-1.934v1.473h2.078V28.405z"/>
	<path d="M26.699,26.214v2.191h-1.211v-5.711h1.664c0.776,0,1.35,0.141,1.723,0.424s0.559,0.711,0.559,1.287
		c0,0.336-0.092,0.635-0.277,0.896s-0.447,0.467-0.785,0.615c0.859,1.283,1.419,2.113,1.68,2.488h-1.344l-1.363-2.191H26.699z
		 M26.699,25.229h0.391c0.383,0,0.666-0.064,0.848-0.191s0.273-0.328,0.273-0.602c0-0.271-0.093-0.463-0.279-0.578
		s-0.475-0.172-0.865-0.172h-0.367V25.229z"/>
	<path d="M34.058,26.214v2.191h-1.211v-5.711h1.664c0.776,0,1.35,0.141,1.723,0.424s0.559,0.711,0.559,1.287
		c0,0.336-0.092,0.635-0.277,0.896s-0.447,0.467-0.785,0.615c0.859,1.283,1.419,2.113,1.68,2.488h-1.344l-1.363-2.191H34.058z
		 M34.058,25.229h0.391c0.383,0,0.666-0.064,0.848-0.191s0.273-0.328,0.273-0.602c0-0.271-0.093-0.463-0.279-0.578
		s-0.475-0.172-0.865-0.172h-0.367V25.229z"/>
	<path d="M38.128,28.405v-5.711h1.211v5.711H38.128z"/>
	<path d="M42.945,25.198h2.266v2.961c-0.367,0.119-0.713,0.203-1.037,0.252s-0.656,0.072-0.994,0.072
		c-0.862,0-1.52-0.254-1.975-0.76s-0.682-1.234-0.682-2.182c0-0.922,0.264-1.641,0.791-2.156s1.258-0.773,2.193-0.773
		c0.586,0,1.151,0.117,1.695,0.352L44.8,23.933c-0.417-0.209-0.85-0.312-1.301-0.312c-0.523,0-0.943,0.176-1.258,0.527
		s-0.473,0.824-0.473,1.418c0,0.619,0.127,1.094,0.381,1.42s0.623,0.49,1.107,0.49c0.252,0,0.509-0.025,0.77-0.078v-1.191h-1.082
		V25.198z"/>
	<path d="M51.25,28.405h-1.207V25.94h-2.262v2.465H46.57v-5.711h1.211v2.238h2.262v-2.238h1.207V28.405z"/>
	<path d="M54.894,28.405h-1.211v-4.703h-1.551v-1.008h4.312v1.008h-1.551V28.405z"/>
</g>
</svg>
