<?xml version="1.0" encoding="utf-8"?>
<!-- Generator: Adobe Illustrator 16.0.4, SVG Export Plug-In . SVG Version: 6.00 Build 0)  -->
<!DOCTYPE svg PUBLIC "-//W3C//DTD SVG 1.1//EN" "http://www.w3.org/Graphics/SVG/1.1/DTD/svg11.dtd">
<svg version="1.1" id="Layer_1" xmlns="http://www.w3.org/2000/svg" xmlns:xlink="http://www.w3.org/1999/xlink" x="0px" y="0px"
	 width="773.5px" height="31.905px" viewBox="0 0 773.5 31.905" enable-background="new 0 0 773.5 31.905" xml:space="preserve">
<g>
	<path d="M7.074,5.078v3.695c0,0.422-0.094,0.792-0.283,1.109s-0.461,0.561-0.818,0.73s-0.779,0.254-1.266,0.254
		c-0.734,0-1.305-0.188-1.711-0.564S2.386,9.412,2.386,8.758v-3.68h1.207v3.496c0,0.44,0.088,0.763,0.266,0.969
		s0.47,0.309,0.879,0.309c0.396,0,0.683-0.104,0.861-0.311s0.268-0.532,0.268-0.975V5.078H7.074z"/>
	<path d="M12.417,6.859c0,0.615-0.192,1.084-0.576,1.41s-0.93,0.488-1.639,0.488h-0.52v2.031H8.472V5.078h1.824
		c0.693,0,1.219,0.149,1.58,0.447S12.417,6.268,12.417,6.859z M9.683,7.766h0.398c0.373,0,0.651-0.074,0.836-0.221
		s0.277-0.361,0.277-0.643c0-0.284-0.078-0.494-0.232-0.629S10.564,6.07,10.234,6.07H9.683V7.766z"/>
	<path d="M17.441,6.859c0,0.615-0.192,1.084-0.576,1.41s-0.93,0.488-1.639,0.488h-0.52v2.031h-1.211V5.078h1.824
		c0.693,0,1.219,0.149,1.58,0.447S17.441,6.268,17.441,6.859z M14.707,7.766h0.398c0.373,0,0.651-0.074,0.836-0.221
		s0.277-0.361,0.277-0.643c0-0.284-0.078-0.494-0.232-0.629S15.588,6.07,15.257,6.07h-0.551V7.766z"/>
	<path d="M21.808,10.789h-3.289V5.078h3.289V6.07H19.73v1.254h1.934v0.992H19.73v1.473h2.078V10.789z"/>
	<path d="M24.21,8.598v2.191H23V5.078h1.664c0.776,0,1.35,0.141,1.723,0.424s0.559,0.711,0.559,1.287
		c0,0.336-0.092,0.635-0.277,0.896s-0.447,0.467-0.785,0.615c0.859,1.284,1.419,2.113,1.68,2.488h-1.344l-1.363-2.191H24.21z
		 M24.21,7.613h0.391c0.383,0,0.666-0.064,0.848-0.191s0.273-0.328,0.273-0.602c0-0.271-0.093-0.463-0.279-0.578
		S24.968,6.07,24.578,6.07H24.21V7.613z"/>
	<path d="M31.57,8.598v2.191h-1.211V5.078h1.664c0.776,0,1.35,0.141,1.723,0.424s0.559,0.711,0.559,1.287
		c0,0.336-0.092,0.635-0.277,0.896s-0.447,0.467-0.785,0.615c0.859,1.284,1.419,2.113,1.68,2.488h-1.344l-1.363-2.191H31.57z
		 M31.57,7.613h0.391c0.383,0,0.666-0.064,0.848-0.191s0.273-0.328,0.273-0.602c0-0.271-0.093-0.463-0.279-0.578
		S32.328,6.07,31.937,6.07H31.57V7.613z"/>
	<path d="M35.64,10.789V5.078h1.211v5.711H35.64z"/>
	<path d="M40.457,7.582h2.266v2.961c-0.367,0.12-0.713,0.204-1.037,0.252s-0.656,0.072-0.994,0.072c-0.862,0-1.52-0.253-1.975-0.76
		s-0.682-1.234-0.682-2.182c0-0.922,0.264-1.641,0.791-2.156s1.258-0.773,2.193-0.773c0.586,0,1.151,0.117,1.695,0.352l-0.402,0.969
		c-0.417-0.208-0.85-0.312-1.301-0.312c-0.523,0-0.943,0.176-1.258,0.527s-0.473,0.824-0.473,1.418c0,0.62,0.127,1.093,0.381,1.42
		s0.623,0.49,1.107,0.49c0.252,0,0.509-0.026,0.77-0.078V8.59h-1.082V7.582z"/>
	<path d="M48.761,10.789h-1.207V8.324h-2.262v2.465h-1.211V5.078h1.211v2.238h2.262V5.078h1.207V10.789z"/>
	<path d="M52.406,10.789h-1.211V6.086h-1.551V5.078h4.312v1.008h-1.551V10.789z"/>
</g>
<g>
	<rect x="2" y="15.06" fill="#2BBECF" width="377.667" height="14.667"/>
	<g>
		<g>
			<path d="M30.157,25.329H28.95v-3.305l0.012-0.543l0.02-0.594c-0.201,0.201-0.34,0.332-0.418,0.395l-0.656,0.527l-0.582-0.727
				l1.84-1.465h0.992V25.329z"/>
		</g>
		<g>
			<path d="M87.037,25.329h-3.992v-0.84l1.434-1.449c0.424-0.435,0.702-0.736,0.832-0.904s0.224-0.324,0.281-0.467
				s0.086-0.292,0.086-0.445c0-0.229-0.063-0.4-0.189-0.512s-0.295-0.168-0.506-0.168c-0.221,0-0.436,0.051-0.645,0.152
				s-0.426,0.246-0.652,0.434l-0.656-0.777c0.281-0.24,0.514-0.409,0.699-0.508s0.387-0.175,0.605-0.229s0.463-0.08,0.734-0.08
				c0.357,0,0.672,0.065,0.945,0.195s0.486,0.312,0.637,0.547s0.227,0.502,0.227,0.805c0,0.263-0.046,0.51-0.139,0.74
				s-0.236,0.467-0.43,0.709s-0.536,0.587-1.025,1.035l-0.734,0.691v0.055h2.488V25.329z"/>
		</g>
		<g>
			<path d="M142.405,20.817c0,0.357-0.108,0.66-0.324,0.91s-0.52,0.422-0.91,0.516v0.023c0.461,0.057,0.81,0.197,1.047,0.42
				s0.355,0.523,0.355,0.9c0,0.549-0.199,0.977-0.598,1.283s-0.967,0.459-1.707,0.459c-0.62,0-1.169-0.103-1.648-0.309v-1.027
				c0.221,0.112,0.465,0.203,0.73,0.273s0.529,0.105,0.789,0.105c0.398,0,0.693-0.068,0.883-0.203s0.285-0.353,0.285-0.652
				c0-0.268-0.109-0.458-0.328-0.57s-0.568-0.168-1.047-0.168h-0.434v-0.926h0.441c0.443,0,0.766-0.058,0.971-0.174
				s0.307-0.314,0.307-0.596c0-0.432-0.271-0.648-0.812-0.648c-0.188,0-0.378,0.031-0.572,0.094s-0.41,0.17-0.646,0.324
				l-0.559-0.832c0.521-0.375,1.142-0.562,1.863-0.562c0.591,0,1.058,0.12,1.4,0.359S142.405,20.39,142.405,20.817z"/>
		</g>
		<g>
			<path d="M191.755,24.145h-0.688v1.184h-1.18v-1.184h-2.438v-0.84l2.504-3.688h1.113v3.59h0.688V24.145z M189.888,23.208v-0.969
				c0-0.162,0.006-0.396,0.02-0.703s0.023-0.486,0.031-0.535h-0.031c-0.096,0.213-0.212,0.422-0.348,0.625l-1.047,1.582H189.888z"/>
		</g>
		<g>
			<path d="M231.374,21.602c0.552,0,0.992,0.155,1.318,0.465s0.49,0.734,0.49,1.273c0,0.638-0.197,1.129-0.59,1.473
				s-0.956,0.516-1.688,0.516c-0.635,0-1.148-0.103-1.539-0.309v-1.043c0.206,0.109,0.445,0.199,0.719,0.268
				s0.533,0.104,0.777,0.104c0.737,0,1.105-0.302,1.105-0.906c0-0.576-0.381-0.863-1.145-0.863c-0.138,0-0.291,0.014-0.457,0.041
				s-0.302,0.057-0.406,0.088l-0.48-0.258l0.215-2.91h3.098v1.023h-2.039l-0.105,1.121l0.137-0.027
				C230.942,21.62,231.139,21.602,231.374,21.602z"/>
		</g>
		<g>
			<path d="M272.93,22.825c0-1.13,0.239-1.971,0.717-2.523s1.193-0.828,2.146-0.828c0.326,0,0.581,0.02,0.766,0.059v0.965
				c-0.232-0.052-0.461-0.078-0.688-0.078c-0.414,0-0.752,0.062-1.014,0.188s-0.458,0.31-0.588,0.555s-0.207,0.592-0.23,1.043h0.051
				c0.258-0.443,0.67-0.664,1.238-0.664c0.51,0,0.91,0.16,1.199,0.48s0.434,0.763,0.434,1.328c0,0.609-0.172,1.092-0.516,1.447
				s-0.82,0.533-1.43,0.533c-0.422,0-0.79-0.098-1.104-0.293s-0.556-0.48-0.727-0.855S272.93,23.354,272.93,22.825z M274.992,24.364
				c0.258,0,0.456-0.086,0.594-0.26s0.207-0.42,0.207-0.74c0-0.279-0.064-0.498-0.193-0.658s-0.324-0.24-0.584-0.24
				c-0.245,0-0.454,0.08-0.627,0.238s-0.26,0.344-0.26,0.555c0,0.31,0.082,0.572,0.244,0.785S274.742,24.364,274.992,24.364z"/>
		</g>
		<g>
			<path d="M316.219,25.329l2.145-4.688h-2.816v-1.016h4.098v0.758l-2.16,4.945H316.219z"/>
		</g>
		<g>
			<path d="M360.25,19.465c0.547,0,0.988,0.125,1.322,0.373s0.502,0.584,0.502,1.006c0,0.292-0.081,0.551-0.242,0.779
				s-0.422,0.432-0.781,0.611c0.427,0.229,0.734,0.468,0.92,0.717s0.279,0.521,0.279,0.818c0,0.469-0.184,0.846-0.551,1.131
				s-0.85,0.428-1.449,0.428c-0.625,0-1.116-0.133-1.473-0.398s-0.535-0.642-0.535-1.129c0-0.326,0.086-0.615,0.26-0.867
				s0.451-0.475,0.834-0.668c-0.326-0.206-0.56-0.426-0.703-0.66s-0.215-0.491-0.215-0.77c0-0.409,0.169-0.74,0.508-0.992
				S359.706,19.465,360.25,19.465z M359.36,23.731c0,0.224,0.078,0.398,0.234,0.523s0.37,0.188,0.641,0.188
				c0.299,0,0.523-0.064,0.672-0.193s0.223-0.299,0.223-0.51c0-0.174-0.074-0.338-0.221-0.49s-0.386-0.314-0.717-0.486
				C359.637,23.018,359.36,23.34,359.36,23.731z M360.243,20.348c-0.206,0-0.372,0.053-0.498,0.158s-0.189,0.247-0.189,0.424
				c0,0.156,0.05,0.296,0.15,0.42s0.282,0.25,0.545,0.381c0.255-0.12,0.434-0.242,0.535-0.367s0.152-0.27,0.152-0.434
				c0-0.18-0.065-0.322-0.195-0.426S360.446,20.348,360.243,20.348z"/>
		</g>
	</g>
</g>
<g>
	<path d="M731.191,4.996v3.695c0,0.422-0.094,0.792-0.283,1.109c-0.188,0.318-0.461,0.561-0.818,0.73
		c-0.356,0.169-0.778,0.254-1.266,0.254c-0.734,0-1.305-0.188-1.711-0.564s-0.609-0.891-0.609-1.545v-3.68h1.207v3.496
		c0,0.44,0.089,0.763,0.266,0.969c0.178,0.206,0.471,0.309,0.879,0.309c0.396,0,0.684-0.104,0.861-0.311
		c0.179-0.207,0.268-0.532,0.268-0.975V4.996H731.191z"/>
	<path d="M736.535,6.777c0,0.615-0.191,1.084-0.576,1.41c-0.384,0.326-0.93,0.488-1.639,0.488h-0.52v2.031h-1.211V4.996h1.824
		c0.693,0,1.22,0.149,1.58,0.447C736.355,5.742,736.535,6.186,736.535,6.777z M733.801,7.684h0.398c0.373,0,0.651-0.074,0.836-0.221
		c0.186-0.147,0.277-0.361,0.277-0.643c0-0.284-0.077-0.494-0.232-0.629c-0.154-0.135-0.397-0.203-0.729-0.203h-0.551V7.684z"/>
	<path d="M741.559,6.777c0,0.615-0.191,1.084-0.576,1.41c-0.384,0.326-0.93,0.488-1.639,0.488h-0.52v2.031h-1.211V4.996h1.824
		c0.693,0,1.22,0.149,1.58,0.447C741.379,5.742,741.559,6.186,741.559,6.777z M738.824,7.684h0.398c0.373,0,0.651-0.074,0.836-0.221
		c0.186-0.147,0.277-0.361,0.277-0.643c0-0.284-0.077-0.494-0.232-0.629c-0.154-0.135-0.397-0.203-0.729-0.203h-0.551V7.684z"/>
	<path d="M745.926,10.707h-3.289V4.996h3.289v0.992h-2.078v1.254h1.934v0.992h-1.934v1.473h2.078V10.707z"/>
	<path d="M748.328,8.516v2.191h-1.211V4.996h1.664c0.776,0,1.351,0.141,1.723,0.424c0.373,0.283,0.559,0.711,0.559,1.287
		c0,0.336-0.092,0.635-0.277,0.896c-0.185,0.262-0.446,0.467-0.785,0.615c0.859,1.284,1.42,2.113,1.68,2.488h-1.344l-1.363-2.191
		H748.328z M748.328,7.531h0.391c0.383,0,0.666-0.064,0.848-0.191c0.183-0.127,0.273-0.328,0.273-0.602
		c0-0.271-0.093-0.463-0.279-0.578c-0.186-0.115-0.475-0.172-0.865-0.172h-0.367V7.531z"/>
	<path d="M754.477,10.707V4.996h1.211v4.711h2.316v1H754.477z"/>
	<path d="M762.285,10.707h-3.289V4.996h3.289v0.992h-2.078v1.254h1.934v0.992h-1.934v1.473h2.078V10.707z"/>
	<path d="M764.668,10.707h-1.191V4.996h3.273v0.992h-2.082v1.473h1.938v0.988h-1.938V10.707z"/>
	<path d="M770.07,10.707h-1.211V6.004h-1.551V4.996h4.312v1.008h-1.551V10.707z"/>
</g>
<g>
	<rect x="393.666" y="15.06" fill="#2BBECF" width="377.667" height="14.667"/>
	<g>
		<g>
			<path d="M416.814,21.981c0,1.125-0.236,1.965-0.711,2.52s-1.191,0.832-2.152,0.832c-0.338,0-0.596-0.018-0.77-0.055v-0.969
				c0.219,0.055,0.447,0.082,0.688,0.082c0.404,0,0.736-0.059,0.996-0.178s0.459-0.305,0.598-0.559s0.217-0.604,0.238-1.049h-0.047
				c-0.15,0.245-0.326,0.417-0.523,0.516s-0.445,0.148-0.742,0.148c-0.498,0-0.889-0.16-1.176-0.479s-0.43-0.762-0.43-1.33
				c0-0.612,0.174-1.096,0.521-1.451s0.82-0.533,1.42-0.533c0.422,0,0.791,0.099,1.107,0.297s0.559,0.485,0.729,0.861
				S416.814,21.46,416.814,21.981z M414.748,20.446c-0.25,0-0.445,0.086-0.586,0.258s-0.211,0.419-0.211,0.742
				c0,0.276,0.064,0.495,0.191,0.656s0.322,0.242,0.582,0.242c0.244,0,0.455-0.08,0.629-0.24s0.262-0.344,0.262-0.553
				c0-0.31-0.082-0.572-0.244-0.785S415,20.446,414.748,20.446z"/>
		</g>
		<g>
			<path d="M454.424,25.254h-1.207V21.95l0.012-0.543l0.02-0.594c-0.2,0.201-0.34,0.332-0.418,0.395l-0.656,0.527l-0.582-0.727
				l1.84-1.465h0.992V25.254z"/>
			<path d="M459.967,22.399c0,0.998-0.163,1.736-0.49,2.215c-0.326,0.479-0.83,0.719-1.51,0.719c-0.658,0-1.155-0.248-1.49-0.742
				c-0.334-0.495-0.502-1.225-0.502-2.191c0-1.008,0.163-1.75,0.488-2.229c0.326-0.478,0.827-0.717,1.504-0.717
				c0.659,0,1.157,0.25,1.494,0.75C459.799,20.704,459.967,21.436,459.967,22.399z M457.174,22.399c0,0.701,0.061,1.203,0.182,1.506
				s0.325,0.455,0.611,0.455c0.281,0,0.484-0.154,0.609-0.461s0.188-0.807,0.188-1.5c0-0.701-0.062-1.204-0.189-1.51
				c-0.126-0.306-0.328-0.459-0.607-0.459c-0.283,0-0.486,0.153-0.609,0.459C457.235,21.195,457.174,21.698,457.174,22.399z"/>
		</g>
		<g>
			<path d="M496.515,25.333h-1.207v-3.305l0.012-0.543l0.02-0.594c-0.201,0.201-0.34,0.332-0.418,0.395l-0.656,0.527l-0.582-0.727
				l1.84-1.465h0.992V25.333z"/>
			<path d="M501.081,25.333h-1.207v-3.305l0.012-0.543l0.02-0.594c-0.201,0.201-0.34,0.332-0.418,0.395l-0.656,0.527l-0.582-0.727
				l1.84-1.465h0.992V25.333z"/>
		</g>
		<g>
			<path d="M539.678,25.333h-1.207v-3.305l0.012-0.543l0.02-0.594c-0.201,0.201-0.34,0.332-0.418,0.395l-0.656,0.527l-0.582-0.727
				l1.84-1.465h0.992V25.333z"/>
			<path d="M545.252,25.333h-3.992v-0.84l1.434-1.449c0.424-0.435,0.701-0.736,0.832-0.904s0.225-0.324,0.281-0.467
				s0.086-0.292,0.086-0.445c0-0.229-0.062-0.4-0.189-0.512s-0.295-0.168-0.506-0.168c-0.221,0-0.436,0.051-0.645,0.152
				s-0.426,0.246-0.652,0.434l-0.656-0.777c0.281-0.24,0.514-0.409,0.699-0.508s0.387-0.175,0.605-0.229s0.463-0.08,0.734-0.08
				c0.357,0,0.672,0.065,0.945,0.195s0.486,0.312,0.637,0.547s0.227,0.502,0.227,0.805c0,0.263-0.047,0.51-0.139,0.74
				s-0.236,0.467-0.43,0.709s-0.535,0.587-1.025,1.035l-0.734,0.691v0.055h2.488V25.333z"/>
		</g>
		<g>
			<path d="M579.77,25.254h-1.207V21.95l0.012-0.543l0.02-0.594c-0.201,0.201-0.34,0.332-0.418,0.395l-0.656,0.527l-0.582-0.727
				l1.84-1.465h0.992V25.254z"/>
			<path d="M585.121,20.821c0,0.357-0.108,0.66-0.324,0.91c-0.217,0.25-0.52,0.422-0.91,0.516v0.023
				c0.461,0.057,0.81,0.197,1.047,0.42c0.236,0.223,0.355,0.523,0.355,0.9c0,0.549-0.199,0.977-0.598,1.283
				s-0.968,0.459-1.707,0.459c-0.62,0-1.17-0.103-1.648-0.309v-1.027c0.221,0.112,0.465,0.203,0.73,0.273s0.528,0.105,0.789,0.105
				c0.398,0,0.692-0.068,0.883-0.203c0.189-0.135,0.285-0.353,0.285-0.652c0-0.268-0.109-0.458-0.328-0.57s-0.568-0.168-1.047-0.168
				h-0.434v-0.926h0.441c0.442,0,0.766-0.058,0.971-0.174c0.204-0.116,0.307-0.314,0.307-0.596c0-0.432-0.271-0.648-0.812-0.648
				c-0.188,0-0.379,0.031-0.572,0.094c-0.194,0.062-0.41,0.17-0.646,0.324l-0.559-0.832c0.521-0.375,1.142-0.562,1.863-0.562
				c0.591,0,1.058,0.12,1.4,0.359C584.949,20.061,585.121,20.394,585.121,20.821z"/>
		</g>
		<g>
			<path d="M629.6,25.333h-1.207v-3.305l0.012-0.543l0.02-0.594c-0.199,0.201-0.34,0.332-0.418,0.395l-0.656,0.527l-0.582-0.727
				l1.84-1.465h0.992V25.333z"/>
			<path d="M635.303,24.149h-0.688v1.184h-1.18v-1.184h-2.438v-0.84l2.504-3.688h1.113v3.59h0.688V24.149z M633.436,23.211v-0.969
				c0-0.162,0.008-0.396,0.02-0.703c0.014-0.307,0.023-0.486,0.031-0.535h-0.031c-0.096,0.213-0.211,0.422-0.348,0.625l-1.047,1.582
				H633.436z"/>
		</g>
		<g>
			<path d="M686.159,25.254h-1.207V21.95l0.012-0.543l0.02-0.594c-0.201,0.201-0.34,0.332-0.418,0.395l-0.656,0.527l-0.582-0.727
				l1.84-1.465h0.992V25.254z"/>
			<path d="M689.819,21.606c0.553,0,0.992,0.155,1.318,0.465s0.49,0.734,0.49,1.273c0,0.638-0.197,1.129-0.59,1.473
				s-0.955,0.516-1.688,0.516c-0.635,0-1.148-0.103-1.539-0.309v-1.043c0.205,0.109,0.445,0.199,0.719,0.268
				s0.533,0.104,0.777,0.104c0.736,0,1.105-0.302,1.105-0.906c0-0.576-0.381-0.863-1.145-0.863c-0.139,0-0.291,0.014-0.457,0.041
				s-0.303,0.057-0.406,0.088l-0.48-0.258l0.215-2.91h3.098v1.023h-2.039l-0.105,1.121l0.137-0.027
				C689.388,21.624,689.585,21.606,689.819,21.606z"/>
		</g>
		<g>
			<path d="M742.972,25.254h-1.207V21.95l0.012-0.543l0.02-0.594c-0.2,0.201-0.34,0.332-0.418,0.395l-0.656,0.527l-0.582-0.727
				l1.84-1.465h0.992V25.254z"/>
			<path d="M744.515,22.829c0-1.13,0.239-1.971,0.717-2.523c0.479-0.552,1.193-0.828,2.146-0.828c0.326,0,0.581,0.02,0.766,0.059
				V20.5c-0.231-0.052-0.461-0.078-0.688-0.078c-0.414,0-0.752,0.062-1.014,0.188s-0.457,0.31-0.588,0.555
				c-0.13,0.245-0.207,0.592-0.23,1.043h0.051c0.258-0.443,0.671-0.664,1.238-0.664c0.511,0,0.91,0.16,1.199,0.48
				s0.434,0.763,0.434,1.328c0,0.609-0.172,1.092-0.516,1.447s-0.82,0.533-1.43,0.533c-0.422,0-0.789-0.098-1.104-0.293
				c-0.313-0.195-0.556-0.48-0.727-0.855C744.601,23.809,744.515,23.357,744.515,22.829z M746.577,24.368
				c0.258,0,0.456-0.086,0.594-0.26c0.139-0.173,0.207-0.42,0.207-0.74c0-0.279-0.064-0.498-0.193-0.658s-0.323-0.24-0.584-0.24
				c-0.244,0-0.453,0.08-0.627,0.238c-0.173,0.159-0.26,0.344-0.26,0.555c0,0.31,0.082,0.572,0.244,0.785
				C746.121,24.261,746.327,24.368,746.577,24.368z"/>
		</g>
	</g>
</g>
</svg>
